<svg xmlns="http://www.w3.org/2000/svg" width="984" height="2156" viewBox="0 0 984 2156" role="img" aria-label="ToDiagram Export"><style type="text/css"><![CDATA[
@import url('https://fonts.googleapis.com/css2?family=Geist+Mono:wght@100..900&display=swap');
svg { text-rendering: optimizeLegibility; shape-rendering: geometricPrecision; }
]]></style><defs><clipPath id="clip-1"><path d="M 617 164.85 h 242 a 4 4 0 0 1 4 4 v 213.5 a 4 4 0 0 1 -4 4 h -242 a 4 4 0 0 1 -4 -4 v -213.5 a 4 4 0 0 1 4 -4 Z"/></clipPath><clipPath id="clip-2"><path d="M 625 239.1 h 226 v 118 h -226 Z"/></clipPath><clipPath id="clip-3"><path d="M 205 467.95 h 462 a 4 4 0 0 1 4 4 v 724.75 a 4 4 0 0 1 -4 4 h -462 a 4 4 0 0 1 -4 -4 v -724.75 a 4 4 0 0 1 4 -4 Z"/></clipPath><clipPath id="clip-4"><path d="M 242 768.7 h 134 v 94 h -134 Z"/></clipPath><clipPath id="clip-5"><path d="M 221 634.95 h 176 v 45 h -176 Z"/></clipPath><clipPath id="clip-6"><path d="M 217 904.95 h 183 a 4 4 0 0 1 4 4 v 270.75 a 4 4 0 0 1 -4 4 h -183 a 4 4 0 0 1 -4 -4 v -270.75 a 4 4 0 0 1 4 -4 Z"/></clipPath><clipPath id="clip-7"><path d="M 234 979.2 h 150 v 69 h -150 Z"/></clipPath><clipPath id="clip-8"><path d="M 225 1085.45 h 167 v 69 h -167 Z"/></clipPath><clipPath id="clip-9"><path d="M 421 571.2 h 234 a 4 4 0 0 1 4 4 v 164.5 a 4 4 0 0 1 -4 4 h -234 a 4 4 0 0 1 -4 -4 v -164.5 a 4 4 0 0 1 4 -4 Z"/></clipPath><clipPath id="clip-10"><path d="M 429 645.45 h 218 v 69 h -218 Z"/></clipPath><clipPath id="clip-11"><path d="M 196 1272.3 h 471 a 4 4 0 0 1 4 4 v 145.25 a 4 4 0 0 1 -4 4 h -471 a 4 4 0 0 1 -4 -4 v -145.25 a 4 4 0 0 1 4 -4 Z"/></clipPath><clipPath id="clip-12"><path d="M 572 1507.15 h 396 a 4 4 0 0 1 4 4 v 541.5 a 4 4 0 0 1 -4 4 h -396 a 4 4 0 0 1 -4 -4 v -541.5 a 4 4 0 0 1 4 -4 Z"/></clipPath><clipPath id="clip-13"><path d="M 700 1581.4 h 234 v 69 h -234 Z"/></clipPath><clipPath id="clip-14"><path d="M 704 1687.65 h 218 v 69 h -218 Z"/></clipPath><clipPath id="clip-15"><path d="M 700 1793.9 h 226 v 45 h -226 Z"/></clipPath><clipPath id="clip-16"><path d="M 700 1876.15 h 167 v 45 h -167 Z"/></clipPath><clipPath id="clip-17"><path d="M 606 1958.4 h 176 v 69 h -176 Z"/></clipPath><clipPath id="clip-18"><path d="M 182 1507.15 h 234 a 4 4 0 0 1 4 4 v 270.75 a 4 4 0 0 1 -4 4 h -234 a 4 4 0 0 1 -4 -4 v -270.75 a 4 4 0 0 1 4 -4 Z"/></clipPath><clipPath id="clip-19"><path d="M 207 1581.4 h 184 v 69 h -184 Z"/></clipPath><clipPath id="clip-20"><path d="M 190 1687.65 h 218 v 69 h -218 Z"/></clipPath><clipPath id="clip-21"><path d="M 637 12 h 201 v 69 h -201 Z"/></clipPath><clipPath id="clip-22"><path d="M 631 2081.65 h 125 v 45 h -125 Z"/></clipPath><clipPath id="clip-23"><path d="M 0 0 h 984 v 2156 h -984 Z M 694 118.25000000000001 h 87.6328125 v 21.6 h -87.6328125 Z" clip-rule="evenodd"/></clipPath><clipPath id="clip-24"><path d="M 0 0 h 984 v 2156 h -984 Z M 658 411.35 h 148.869140625 v 21.6 h -148.869140625 Z" clip-rule="evenodd"/></clipPath><clipPath id="clip-25"><path d="M 0 0 h 984 v 2156 h -984 Z M 764 1225.7 h 104.015625 v 21.6 h -104.015625 Z" clip-rule="evenodd"/></clipPath><clipPath id="clip-26"><path d="M 0 0 h 984 v 2156 h -984 Z M 193 1225.7 h 127.705078125 v 21.6 h -127.705078125 Z" clip-rule="evenodd"/></clipPath><clipPath id="clip-27"><path d="M 0 0 h 984 v 2156 h -984 Z M 608 1225.7 h 145.08984375 v 21.6 h -145.08984375 Z" clip-rule="evenodd"/></clipPath><clipPath id="clip-28"><path d="M 0 0 h 984 v 2156 h -984 Z M 331 1225.7 h 165.5859375 v 21.6 h -165.5859375 Z" clip-rule="evenodd"/></clipPath><clipPath id="clip-29"><path d="M 0 0 h 984 v 2156 h -984 Z M 507 1225.7 h 76.728515625 v 21.6 h -76.728515625 Z" clip-rule="evenodd"/></clipPath><clipPath id="clip-30"><path d="M 0 0 h 984 v 2156 h -984 Z M 628 1460.55 h 120.2578125 v 21.6 h -120.2578125 Z" clip-rule="evenodd"/></clipPath><clipPath id="clip-31"><path d="M 0 0 h 984 v 2156 h -984 Z M 228 1460.55 h 140.455078125 v 21.6 h -140.455078125 Z" clip-rule="evenodd"/></clipPath><clipPath id="clip-32"><path d="M 0 0 h 984 v 2156 h -984 Z M 12 1330.325 h 159.6328125 v 37.2 h -159.6328125 Z" clip-rule="evenodd"/></clipPath></defs><path d="M 619 166.85 h 244 a 4 4 0 0 1 4 4 v 215.5 a 4 4 0 0 1 -4 4 h -244 a 4 4 0 0 1 -4 -4 v -215.5 a 4 4 0 0 1 4 -4 Z" fill="rgba(29, 24, 41, 0.08)" stroke="none"/><path d="M 617 164.85 h 242 a 4 4 0 0 1 4 4 v 213.5 a 4 4 0 0 1 -4 4 h -242 a 4 4 0 0 1 -4 -4 v -213.5 a 4 4 0 0 1 4 -4 Z" fill="#3A3051" stroke="none"/><g clip-path="url(#clip-1)"></g><text x="738.1" y="191.43" fill="#D3C9E8" font-family="'Geist Mono', ui-monospace, SFMono-Regular, Menlo, Monaco, Consolas, 'Liberation Mono', 'Courier New', monospace" font-size="14" font-weight="300" text-anchor="middle" dominant-baseline="alphabetic">CI Quality Gate (CircleCI)</text><path d="M 617 164.85 h 242 a 4 4 0 0 1 4 4 v 213.5 a 4 4 0 0 1 -4 4 h -242 a 4 4 0 0 1 -4 -4 v -213.5 a 4 4 0 0 1 4 -4 Z" stroke="#604F86" stroke-width="1.5" stroke-linecap="round" stroke-linejoin="round" fill="none"/><path d="M 625 239.1 h 226 v 118 h -226 Z" fill="#514370" stroke="none"/><g clip-path="url(#clip-2)"><rect x="625" y="239.1" width="226" height="119" fill="#514370" stroke="none"/></g><text x="738.1" y="265.71" fill="#D3C9E8" font-family="'Geist Mono', ui-monospace, SFMono-Regular, Menlo, Monaco, Consolas, 'Liberation Mono', 'Courier New', monospace" font-size="14" font-weight="300" text-anchor="middle" dominant-baseline="alphabetic">Code Validation</text><text x="738.1" y="290.48" fill="#D3C9E8" font-family="'Geist Mono', ui-monospace, SFMono-Regular, Menlo, Monaco, Consolas, 'Liberation Mono', 'Courier New', monospace" font-size="14" font-weight="300" text-anchor="middle" dominant-baseline="alphabetic">• Format &amp; Lint</text><text x="738.1" y="314.29" fill="#D3C9E8" font-family="'Geist Mono', ui-monospace, SFMono-Regular, Menlo, Monaco, Consolas, 'Liberation Mono', 'Courier New', monospace" font-size="14" font-weight="300" text-anchor="middle" dominant-baseline="alphabetic">• Type Check</text><text x="738.1" y="339.05" fill="#D3C9E8" font-family="'Geist Mono', ui-monospace, SFMono-Regular, Menlo, Monaco, Consolas, 'Liberation Mono', 'Courier New', monospace" font-size="14" font-weight="300" text-anchor="middle" dominant-baseline="alphabetic">• Unit/Integration Tests</text><path d="M 625 239.1 h 226 v 118 h -226 Z" stroke="#8979AF" stroke-width="1" stroke-linecap="round" stroke-linejoin="round" fill="none"/><path d="M 207 469.95 h 464 a 4 4 0 0 1 4 4 v 726.75 a 4 4 0 0 1 -4 4 h -464 a 4 4 0 0 1 -4 -4 v -726.75 a 4 4 0 0 1 4 -4 Z" fill="rgba(41, 24, 38, 0.08)" stroke="none"/><path d="M 205 467.95 h 462 a 4 4 0 0 1 4 4 v 724.75 a 4 4 0 0 1 -4 4 h -462 a 4 4 0 0 1 -4 -4 v -724.75 a 4 4 0 0 1 4 -4 Z" fill="#51304C" stroke="none"/><g clip-path="url(#clip-3)"></g><text x="436.19" y="494.29" fill="#E8C9E3" font-family="'Geist Mono', ui-monospace, SFMono-Regular, Menlo, Monaco, Consolas, 'Liberation Mono', 'Courier New', monospace" font-size="14" font-weight="300" text-anchor="middle" dominant-baseline="alphabetic">1. Daily Pipeline</text><text x="436.19" y="519.05" fill="#E8C9E3" font-family="'Geist Mono', ui-monospace, SFMono-Regular, Menlo, Monaco, Consolas, 'Liberation Mono', 'Courier New', monospace" font-size="14" font-weight="300" text-anchor="middle" dominant-baseline="alphabetic">(GitHub Actions)</text><path d="M 205 467.95 h 462 a 4 4 0 0 1 4 4 v 724.75 a 4 4 0 0 1 -4 4 h -462 a 4 4 0 0 1 -4 -4 v -724.75 a 4 4 0 0 1 4 -4 Z" stroke="#864F7D" stroke-width="1.5" stroke-linecap="round" stroke-linejoin="round" fill="none"/><path d="M 242 768.7 h 134 v 94 h -134 Z" fill="#706743" stroke="none"/><g clip-path="url(#clip-4)"><rect x="242" y="768.7" width="134" height="95" fill="#706743" stroke="none"/></g><text x="308.57" y="795.24" fill="#E8E2C9" font-family="'Geist Mono', ui-monospace, SFMono-Regular, Menlo, Monaco, Consolas, 'Liberation Mono', 'Courier New', monospace" font-size="14" font-weight="300" text-anchor="middle" dominant-baseline="alphabetic">extractor.py</text><text x="308.57" y="820" fill="#E8E2C9" font-family="'Geist Mono', ui-monospace, SFMono-Regular, Menlo, Monaco, Consolas, 'Liberation Mono', 'Courier New', monospace" font-size="14" font-weight="300" text-anchor="middle" dominant-baseline="alphabetic">Collect Data</text><text x="308.57" y="844.76" fill="#E8E2C9" font-family="'Geist Mono', ui-monospace, SFMono-Regular, Menlo, Monaco, Consolas, 'Liberation Mono', 'Courier New', monospace" font-size="14" font-weight="300" text-anchor="middle" dominant-baseline="alphabetic">from NEMS API</text><path d="M 242 768.7 h 134 v 94 h -134 Z" stroke="#AFA479" stroke-width="1" stroke-linecap="round" stroke-linejoin="round" fill="none"/><path d="M 221 634.95 h 176 v 45 h -176 Z" fill="#704369" stroke="none"/><g clip-path="url(#clip-5)"><rect x="221" y="634.95" width="176" height="46" fill="#704369" stroke="none"/></g><text x="308.57" y="661.9" fill="#E8C9E3" font-family="'Geist Mono', ui-monospace, SFMono-Regular, Menlo, Monaco, Consolas, 'Liberation Mono', 'Courier New', monospace" font-size="14" font-weight="300" text-anchor="middle" dominant-baseline="alphabetic">Daily Cron Trigger</text><path d="M 221 634.95 h 176 v 45 h -176 Z" stroke="#AF79A6" stroke-width="1" stroke-linecap="round" stroke-linejoin="round" fill="none"/><path d="M 219 906.95 h 185 a 4 4 0 0 1 4 4 v 272.75 a 4 4 0 0 1 -4 4 h -185 a 4 4 0 0 1 -4 -4 v -272.75 a 4 4 0 0 1 4 -4 Z" fill="rgba(41, 24, 38, 0.08)" stroke="none"/><path d="M 217 904.95 h 183 a 4 4 0 0 1 4 4 v 270.75 a 4 4 0 0 1 -4 4 h -183 a 4 4 0 0 1 -4 -4 v -270.75 a 4 4 0 0 1 4 -4 Z" fill="#51304C" stroke="none"/><g clip-path="url(#clip-6)"></g><text x="308.57" y="931.43" fill="#E8C9E3" font-family="'Geist Mono', ui-monospace, SFMono-Regular, Menlo, Monaco, Consolas, 'Liberation Mono', 'Courier New', monospace" font-size="14" font-weight="300" text-anchor="middle" dominant-baseline="alphabetic">2. Prepare Data</text><path d="M 217 904.95 h 183 a 4 4 0 0 1 4 4 v 270.75 a 4 4 0 0 1 -4 4 h -183 a 4 4 0 0 1 -4 -4 v -270.75 a 4 4 0 0 1 4 -4 Z" stroke="#864F7D" stroke-width="1.5" stroke-linecap="round" stroke-linejoin="round" fill="none"/><path d="M 234 979.2 h 150 v 69 h -150 Z" fill="#594370" stroke="none"/><g clip-path="url(#clip-7)"><rect x="234" y="979.2" width="150" height="70" fill="#594370" stroke="none"/></g><text x="308.57" y="1005.71" fill="#D8C9E8" font-family="'Geist Mono', ui-monospace, SFMono-Regular, Menlo, Monaco, Consolas, 'Liberation Mono', 'Courier New', monospace" font-size="14" font-weight="300" text-anchor="middle" dominant-baseline="alphabetic">processor.py</text><text x="308.57" y="1030.48" fill="#D8C9E8" font-family="'Geist Mono', ui-monospace, SFMono-Regular, Menlo, Monaco, Consolas, 'Liberation Mono', 'Courier New', monospace" font-size="14" font-weight="300" text-anchor="middle" dominant-baseline="alphabetic">Preprocess Data</text><path d="M 234 979.2 h 150 v 69 h -150 Z" stroke="#9379AF" stroke-width="1" stroke-linecap="round" stroke-linejoin="round" fill="none"/><path d="M 225 1085.45 h 167 v 69 h -167 Z" fill="#5f4370" stroke="none"/><g clip-path="url(#clip-8)"><rect x="225" y="1085.45" width="167" height="70" fill="#5f4370" stroke="none"/></g><text x="308.57" y="1111.43" fill="#DDC9E8" font-family="'Geist Mono', ui-monospace, SFMono-Regular, Menlo, Monaco, Consolas, 'Liberation Mono', 'Courier New', monospace" font-size="14" font-weight="300" text-anchor="middle" dominant-baseline="alphabetic">feature_eng.py</text><text x="308.57" y="1136.19" fill="#DDC9E8" font-family="'Geist Mono', ui-monospace, SFMono-Regular, Menlo, Monaco, Consolas, 'Liberation Mono', 'Courier New', monospace" font-size="14" font-weight="300" text-anchor="middle" dominant-baseline="alphabetic">Engineer Features</text><path d="M 225 1085.45 h 167 v 69 h -167 Z" stroke="#9A79AF" stroke-width="1" stroke-linecap="round" stroke-linejoin="round" fill="none"/><path d="M 423 573.2 h 236 a 4 4 0 0 1 4 4 v 166.5 a 4 4 0 0 1 -4 4 h -236 a 4 4 0 0 1 -4 -4 v -166.5 a 4 4 0 0 1 4 -4 Z" fill="rgba(41, 24, 38, 0.08)" stroke="none"/><path d="M 421 571.2 h 234 a 4 4 0 0 1 4 4 v 164.5 a 4 4 0 0 1 -4 4 h -234 a 4 4 0 0 1 -4 -4 v -164.5 a 4 4 0 0 1 4 -4 Z" fill="#51304C" stroke="none"/><g clip-path="url(#clip-9)"></g><text x="538.1" y="598.1" fill="#E8C9E3" font-family="'Geist Mono', ui-monospace, SFMono-Regular, Menlo, Monaco, Consolas, 'Liberation Mono', 'Courier New', monospace" font-size="14" font-weight="300" text-anchor="middle" dominant-baseline="alphabetic">3. Train &amp; Predict Models</text><path d="M 421 571.2 h 234 a 4 4 0 0 1 4 4 v 164.5 a 4 4 0 0 1 -4 4 h -234 a 4 4 0 0 1 -4 -4 v -164.5 a 4 4 0 0 1 4 -4 Z" stroke="#864F7D" stroke-width="1.5" stroke-linecap="round" stroke-linejoin="round" fill="none"/><path d="M 429 645.45 h 218 v 69 h -218 Z" fill="#705043" stroke="none"/><g clip-path="url(#clip-10)"><rect x="429" y="645.45" width="218" height="70" fill="#705043" stroke="none"/></g><text x="538.1" y="671.43" fill="#E8D2C9" font-family="'Geist Mono', ui-monospace, SFMono-Regular, Menlo, Monaco, Consolas, 'Liberation Mono', 'Courier New', monospace" font-size="14" font-weight="300" text-anchor="middle" dominant-baseline="alphabetic">model.py &amp; benchmark.py</text><text x="538.1" y="696.19" fill="#E8D2C9" font-family="'Geist Mono', ui-monospace, SFMono-Regular, Menlo, Monaco, Consolas, 'Liberation Mono', 'Courier New', monospace" font-size="14" font-weight="300" text-anchor="middle" dominant-baseline="alphabetic">Prophet + skforecast</text><path d="M 429 645.45 h 218 v 69 h -218 Z" stroke="#AF8879" stroke-width="1" stroke-linecap="round" stroke-linejoin="round" fill="none"/><path d="M 198 1274.3 h 473 a 4 4 0 0 1 4 4 v 147.25 a 4 4 0 0 1 -4 4 h -473 a 4 4 0 0 1 -4 -4 v -147.25 a 4 4 0 0 1 4 -4 Z" fill="rgba(32, 41, 24, 0.08)" stroke="none"/><path d="M 196 1272.3 h 471 a 4 4 0 0 1 4 4 v 145.25 a 4 4 0 0 1 -4 4 h -471 a 4 4 0 0 1 -4 -4 v -145.25 a 4 4 0 0 1 4 -4 Z" fill="#3F5130" stroke="none"/><g clip-path="url(#clip-11)"></g><text x="431.43" y="1299.05" fill="#D7E8C9" font-family="'Geist Mono', ui-monospace, SFMono-Regular, Menlo, Monaco, Consolas, 'Liberation Mono', 'Courier New', monospace" font-size="14" font-weight="300" text-anchor="middle" dominant-baseline="alphabetic">Data &amp; Artifact Storage</text><path d="M 196 1272.3 h 471 a 4 4 0 0 1 4 4 v 145.25 a 4 4 0 0 1 -4 4 h -471 a 4 4 0 0 1 -4 -4 v -145.25 a 4 4 0 0 1 4 -4 Z" stroke="#68864F" stroke-width="1.5" stroke-linecap="round" stroke-linejoin="round" fill="none"/><path d="M 204 1354.59 C 204 1338.51, 413 1338.51, 413 1354.59 L 413 1405.51 C 413 1421.59, 204 1421.59, 204 1405.51 Z" fill="#577043" stroke="none"/><path d="M 204 1354.59 C 204 1338.51, 413 1338.51, 413 1354.59 L 413 1405.51 C 413 1421.59, 204 1421.59, 204 1405.51 Z" stroke="#91AF79" stroke-width="1" stroke-linecap="round" stroke-linejoin="round" fill="none"/><path d="M 204 1354.59 C 204 1362.63, 413 1362.63, 413 1354.59" stroke="#91AF79" stroke-width="1" stroke-linecap="round" stroke-linejoin="round" fill="none"/><text x="308.5" y="1378.99" fill="#D7E8C9" font-family="'Geist Mono', ui-monospace, SFMono-Regular, Menlo, Monaco, Consolas, 'Liberation Mono', 'Courier New', monospace" font-size="14" font-weight="300" text-anchor="middle" dominant-baseline="central">Supabase Database</text><text x="308.5" y="1397.19" fill="#D7E8C9" font-family="'Geist Mono', ui-monospace, SFMono-Regular, Menlo, Monaco, Consolas, 'Liberation Mono', 'Courier New', monospace" font-size="14" font-weight="300" text-anchor="middle" dominant-baseline="central">Online + Offline Store</text><path d="M 433 1354.59 C 433 1338.51, 659 1338.51, 659 1354.59 L 659 1405.51 C 659 1421.59, 433 1421.59, 433 1405.51 Z" fill="#577043" stroke="none"/><path d="M 433 1354.59 C 433 1338.51, 659 1338.51, 659 1354.59 L 659 1405.51 C 659 1421.59, 433 1421.59, 433 1405.51 Z" stroke="#91AF79" stroke-width="1" stroke-linecap="round" stroke-linejoin="round" fill="none"/><path d="M 433 1354.59 C 433 1362.63, 659 1362.63, 659 1354.59" stroke="#91AF79" stroke-width="1" stroke-linecap="round" stroke-linejoin="round" fill="none"/><text x="546" y="1378.99" fill="#D7E8C9" font-family="'Geist Mono', ui-monospace, SFMono-Regular, Menlo, Monaco, Consolas, 'Liberation Mono', 'Courier New', monospace" font-size="14" font-weight="300" text-anchor="middle" dominant-baseline="central">Model Artifact Storage</text><text x="546" y="1397.19" fill="#D7E8C9" font-family="'Geist Mono', ui-monospace, SFMono-Regular, Menlo, Monaco, Consolas, 'Liberation Mono', 'Courier New', monospace" font-size="14" font-weight="300" text-anchor="middle" dominant-baseline="central">(Git / Supabase Storage)</text><path d="M 574 1509.15 h 398 a 4 4 0 0 1 4 4 v 543.5 a 4 4 0 0 1 -4 4 h -398 a 4 4 0 0 1 -4 -4 v -543.5 a 4 4 0 0 1 4 -4 Z" fill="rgba(30, 41, 24, 0.08)" stroke="none"/><path d="M 572 1507.15 h 396 a 4 4 0 0 1 4 4 v 541.5 a 4 4 0 0 1 -4 4 h -396 a 4 4 0 0 1 -4 -4 v -541.5 a 4 4 0 0 1 4 -4 Z" fill="#3C5130" stroke="none"/><g clip-path="url(#clip-12)"></g><text x="769.52" y="1534.29" fill="#D4E8C9" font-family="'Geist Mono', ui-monospace, SFMono-Regular, Menlo, Monaco, Consolas, 'Liberation Mono', 'Courier New', monospace" font-size="14" font-weight="300" text-anchor="middle" dominant-baseline="alphabetic">4. Automated Containerize &amp; Deploy</text><path d="M 572 1507.15 h 396 a 4 4 0 0 1 4 4 v 541.5 a 4 4 0 0 1 -4 4 h -396 a 4 4 0 0 1 -4 -4 v -541.5 a 4 4 0 0 1 4 -4 Z" stroke="#63864F" stroke-width="1.5" stroke-linecap="round" stroke-linejoin="round" fill="none"/><path d="M 700 1581.4 h 234 v 69 h -234 Z" fill="#537043" stroke="none"/><g clip-path="url(#clip-13)"><rect x="700" y="1581.4" width="234" height="70" fill="#537043" stroke="none"/></g><text x="817.14" y="1607.62" fill="#D4E8C9" font-family="'Geist Mono', ui-monospace, SFMono-Regular, Menlo, Monaco, Consolas, 'Liberation Mono', 'Courier New', monospace" font-size="14" font-weight="300" text-anchor="middle" dominant-baseline="alphabetic">deploy.yaml</text><text x="817.14" y="1632.38" fill="#D4E8C9" font-family="'Geist Mono', ui-monospace, SFMono-Regular, Menlo, Monaco, Consolas, 'Liberation Mono', 'Courier New', monospace" font-size="14" font-weight="300" text-anchor="middle" dominant-baseline="alphabetic">(GitHub Actions Workflow)</text><path d="M 700 1581.4 h 234 v 69 h -234 Z" stroke="#8CAF79" stroke-width="1" stroke-linecap="round" stroke-linejoin="round" fill="none"/><path d="M 704 1687.65 h 218 v 69 h -218 Z" fill="#437063" stroke="none"/><g clip-path="url(#clip-14)"><rect x="704" y="1687.65" width="218" height="70" fill="#437063" stroke="none"/></g><text x="813.33" y="1714.29" fill="#C9E8DF" font-family="'Geist Mono', ui-monospace, SFMono-Regular, Menlo, Monaco, Consolas, 'Liberation Mono', 'Courier New', monospace" font-size="14" font-weight="300" text-anchor="middle" dominant-baseline="alphabetic">az acr build</text><text x="813.33" y="1739.05" fill="#C9E8DF" font-family="'Geist Mono', ui-monospace, SFMono-Regular, Menlo, Monaco, Consolas, 'Liberation Mono', 'Courier New', monospace" font-size="14" font-weight="300" text-anchor="middle" dominant-baseline="alphabetic">(Triggered by Workflow)</text><path d="M 704 1687.65 h 218 v 69 h -218 Z" stroke="#79AF9F" stroke-width="1" stroke-linecap="round" stroke-linejoin="round" fill="none"/><path d="M 700 1793.9 h 226 v 45 h -226 Z" fill="#705443" stroke="none"/><g clip-path="url(#clip-15)"><rect x="700" y="1793.9" width="226" height="46" fill="#705443" stroke="none"/></g><text x="813.33" y="1820.95" fill="#E8D5C9" font-family="'Geist Mono', ui-monospace, SFMono-Regular, Menlo, Monaco, Consolas, 'Liberation Mono', 'Courier New', monospace" font-size="14" font-weight="300" text-anchor="middle" dominant-baseline="alphabetic">Azure Container Registry</text><path d="M 700 1793.9 h 226 v 45 h -226 Z" stroke="#AF8D79" stroke-width="1" stroke-linecap="round" stroke-linejoin="round" fill="none"/><path d="M 700 1876.15 h 167 v 45 h -167 Z" fill="#4a7043" stroke="none"/><g clip-path="url(#clip-16)"><rect x="700" y="1876.15" width="167" height="46" fill="#4a7043" stroke="none"/></g><text x="783.81" y="1902.86" fill="#CEE8C9" font-family="'Geist Mono', ui-monospace, SFMono-Regular, Menlo, Monaco, Consolas, 'Liberation Mono', 'Courier New', monospace" font-size="14" font-weight="300" text-anchor="middle" dominant-baseline="alphabetic">Azure App Service</text><path d="M 700 1876.15 h 167 v 45 h -167 Z" stroke="#81AF79" stroke-width="1" stroke-linecap="round" stroke-linejoin="round" fill="none"/><path d="M 606 1958.4 h 176 v 69 h -176 Z" fill="#537043" stroke="none"/><g clip-path="url(#clip-17)"><rect x="606" y="1958.4" width="176" height="70" fill="#537043" stroke="none"/></g><text x="694.29" y="1984.76" fill="#D4E8C9" font-family="'Geist Mono', ui-monospace, SFMono-Regular, Menlo, Monaco, Consolas, 'Liberation Mono', 'Courier New', monospace" font-size="14" font-weight="300" text-anchor="middle" dominant-baseline="alphabetic">streamlit_app.py</text><text x="694.29" y="2009.52" fill="#D4E8C9" font-family="'Geist Mono', ui-monospace, SFMono-Regular, Menlo, Monaco, Consolas, 'Liberation Mono', 'Courier New', monospace" font-size="14" font-weight="300" text-anchor="middle" dominant-baseline="alphabetic">Streamlit Frontend</text><path d="M 606 1958.4 h 176 v 69 h -176 Z" stroke="#8CAF79" stroke-width="1" stroke-linecap="round" stroke-linejoin="round" fill="none"/><path d="M 184 1509.15 h 236 a 4 4 0 0 1 4 4 v 272.75 a 4 4 0 0 1 -4 4 h -236 a 4 4 0 0 1 -4 -4 v -272.75 a 4 4 0 0 1 4 -4 Z" fill="rgba(41, 36, 24, 0.08)" stroke="none"/><path d="M 182 1507.15 h 234 a 4 4 0 0 1 4 4 v 270.75 a 4 4 0 0 1 -4 4 h -234 a 4 4 0 0 1 -4 -4 v -270.75 a 4 4 0 0 1 4 -4 Z" fill="#514730" stroke="none"/><g clip-path="url(#clip-18)"></g><text x="299.05" y="1534.29" fill="#E8DFC9" font-family="'Geist Mono', ui-monospace, SFMono-Regular, Menlo, Monaco, Consolas, 'Liberation Mono', 'Courier New', monospace" font-size="14" font-weight="300" text-anchor="middle" dominant-baseline="alphabetic">5. Performance Monitor</text><path d="M 182 1507.15 h 234 a 4 4 0 0 1 4 4 v 270.75 a 4 4 0 0 1 -4 4 h -234 a 4 4 0 0 1 -4 -4 v -270.75 a 4 4 0 0 1 4 -4 Z" stroke="#86754F" stroke-width="1.5" stroke-linecap="round" stroke-linejoin="round" fill="none"/><path d="M 207 1581.4 h 184 v 69 h -184 Z" fill="#706343" stroke="none"/><g clip-path="url(#clip-19)"><rect x="207" y="1581.4" width="184" height="70" fill="#706343" stroke="none"/></g><text x="299.05" y="1607.62" fill="#E8DFC9" font-family="'Geist Mono', ui-monospace, SFMono-Regular, Menlo, Monaco, Consolas, 'Liberation Mono', 'Courier New', monospace" font-size="14" font-weight="300" text-anchor="middle" dominant-baseline="alphabetic">Daily GitHub Action</text><text x="299.05" y="1632.38" fill="#E8DFC9" font-family="'Geist Mono', ui-monospace, SFMono-Regular, Menlo, Monaco, Consolas, 'Liberation Mono', 'Courier New', monospace" font-size="14" font-weight="300" text-anchor="middle" dominant-baseline="alphabetic">Validation Check</text><path d="M 207 1581.4 h 184 v 69 h -184 Z" stroke="#AF9F79" stroke-width="1" stroke-linecap="round" stroke-linejoin="round" fill="none"/><path d="M 190 1687.65 h 218 v 69 h -218 Z" fill="#435670" stroke="none"/><g clip-path="url(#clip-20)"><rect x="190" y="1687.65" width="218" height="70" fill="#435670" stroke="none"/></g><text x="299.05" y="1714.29" fill="#C9D6E8" font-family="'Geist Mono', ui-monospace, SFMono-Regular, Menlo, Monaco, Consolas, 'Liberation Mono', 'Courier New', monospace" font-size="14" font-weight="300" text-anchor="middle" dominant-baseline="alphabetic">Alarm Trigger</text><text x="299.05" y="1739.05" fill="#C9D6E8" font-family="'Geist Mono', ui-monospace, SFMono-Regular, Menlo, Monaco, Consolas, 'Liberation Mono', 'Courier New', monospace" font-size="14" font-weight="300" text-anchor="middle" dominant-baseline="alphabetic">(Upon Workflow Failure)</text><path d="M 190 1687.65 h 218 v 69 h -218 Z" stroke="#798FAF" stroke-width="1" stroke-linecap="round" stroke-linejoin="round" fill="none"/><path d="M 639 14 h 203 v 71 h -203 Z" fill="rgba(34, 40, 56, 0.08)" stroke="none"/><path d="M 637 12 h 201 v 69 h -201 Z" fill="#435070" stroke="none"/><g clip-path="url(#clip-21)"><rect x="637" y="12" width="201" height="70" fill="#435070" stroke="none"/></g><text x="737.14" y="38.1" fill="#C9D2E8" font-family="'Geist Mono', ui-monospace, SFMono-Regular, Menlo, Monaco, Consolas, 'Liberation Mono', 'Courier New', monospace" font-size="14" font-weight="300" text-anchor="middle" dominant-baseline="alphabetic">Lineage Tracker</text><text x="737.14" y="62.86" fill="#C9D2E8" font-family="'Geist Mono', ui-monospace, SFMono-Regular, Menlo, Monaco, Consolas, 'Liberation Mono', 'Courier New', monospace" font-size="14" font-weight="300" text-anchor="middle" dominant-baseline="alphabetic">(Git Version Control)</text><path d="M 637 12 h 201 v 69 h -201 Z" stroke="#7988AF" stroke-width="1" stroke-linecap="round" stroke-linejoin="round" fill="none"/><path d="M 633 2083.65 h 127 v 47 h -127 Z" fill="rgba(43, 56, 34, 0.08)" stroke="none"/><path d="M 631 2081.65 h 125 v 45 h -125 Z" fill="#557043" stroke="none"/><g clip-path="url(#clip-22)"><rect x="631" y="2081.65" width="125" height="46" fill="#557043" stroke="none"/></g><text x="693.33" y="2108.57" fill="#D6E8C9" font-family="'Geist Mono', ui-monospace, SFMono-Regular, Menlo, Monaco, Consolas, 'Liberation Mono', 'Courier New', monospace" font-size="14" font-weight="300" text-anchor="middle" dominant-baseline="alphabetic">User Browser</text><path d="M 631 2081.65 h 125 v 45 h -125 Z" stroke="#8EAF79" stroke-width="1" stroke-linecap="round" stroke-linejoin="round" fill="none"/><path d="M309,679.95L309,768.7L309,768.7" stroke="#E8E2C9" stroke-width="1" stroke-linecap="round" stroke-linejoin="round" fill="none"/><path d="M 309 768.7 L 305 762.7 L 313 762.7 Z" fill="#E8E2C9" stroke="none"/><path d="M309,1048.2L309,1085.45L309,1085.45" stroke="#DDC9E8" stroke-width="1" stroke-linecap="round" stroke-linejoin="round" fill="none"/><path d="M 309 1085.45 L 305 1079.45 L 313 1079.45 Z" fill="#DDC9E8" stroke="none"/><path d="M309,862.7L309,881.325C309,881.325,309,918.575,309,918.575L309,979.2" stroke="#D8C9E8" stroke-width="1" stroke-linecap="round" stroke-linejoin="round" fill="none"/><path d="M 309 979.2 L 305 973.2 L 313 973.2 Z" fill="#D8C9E8" stroke="none"/><path d="M817,1650.3999999999999L817,1675.6499999999999C817,1676.7545694996616,816.1045694996616,1677.6499999999999,815,1677.6499999999999L815,1677.6499999999999C813.8954305003384,1677.6499999999999,813,1678.5454305003382,813,1679.6499999999999L813,1687.6499999999999" stroke="#C9E8DF" stroke-width="1" stroke-linecap="round" stroke-linejoin="round" fill="none"/><path d="M 813 1687.65 L 809 1681.65 L 817 1681.65 Z" fill="#C9E8DF" stroke="none"/><path d="M813,1756.6499999999999L813,1793.8999999999999L813,1793.8999999999999" stroke="#E8D5C9" stroke-width="1" stroke-linecap="round" stroke-linejoin="round" fill="none"/><path d="M 813 1793.9 L 809 1787.9 L 817 1787.9 Z" fill="#E8D5C9" stroke="none"/><path d="M813,1838.8999999999999L813,1858.1499999999999C813,1862.5682779986462,809.4182779986463,1866.1499999999999,805,1866.1499999999999L789,1866.1499999999999C786.238576250846,1866.1499999999999,784,1868.388576250846,784,1871.1499999999999L784,1876.1499999999999" stroke="#CEE8C9" stroke-width="1" stroke-linecap="round" stroke-linejoin="round" fill="none"/><path d="M 784 1876.15 L 780 1870.15 L 788 1870.15 Z" fill="#CEE8C9" stroke="none"/><path d="M784,1921.1499999999999L784,1940.3999999999999C784,1944.8182779986462,780.4182779986463,1948.3999999999999,776,1948.3999999999999L704,1948.3999999999999C701.238576250846,1948.3999999999999,699,1950.638576250846,699,1953.3999999999999L699,1958.3999999999999" stroke="#D4E8C9" stroke-width="1" stroke-linecap="round" stroke-linejoin="round" fill="none"/><path d="M 699 1958.4 L 695 1952.4 L 703 1952.4 Z" fill="#D4E8C9" stroke="none"/><path d="M299,1650.3999999999999L299,1687.6499999999999L299,1687.6499999999999" stroke="#C9D6E8" stroke-width="1" stroke-linecap="round" stroke-linejoin="round" fill="none"/><path d="M 299 1687.65 L 295 1681.65 L 303 1681.65 Z" fill="#C9D6E8" stroke="none"/><g clip-path="url(#clip-23)"><path d="M738,81L738,120.425C738,120.425,738,199.27499999999998,738,199.27499999999998L738,239.1" stroke="#D3C9E8" stroke-width="1" stroke-linecap="round" stroke-linejoin="round" fill="none"/></g><path d="M 738 239.1 L 734 233.1 L 742 233.1 Z" fill="#D3C9E8" stroke="none"/><text x="737.82" y="129.05" fill="#D3C9E8" font-family="-apple-system, BlinkMacSystemFont, 'Segoe UI', system-ui, sans-serif" font-size="12" font-weight="400" text-anchor="middle" dominant-baseline="central">Code Push / PR</text><g clip-path="url(#clip-24)"><path d="M733,357.1L733,374.225C733,374.225,733,408.475,733,408.475L733,434.95000000000005C733,439.3682779986464,729.4182779986463,442.95000000000005,725,442.95000000000005L536,442.95000000000005C531.5817220013537,442.95000000000005,528,446.53172200135367,528,450.95000000000005L528,467.95000000000005" stroke="#E8C9E3" stroke-width="1" stroke-linecap="round" stroke-linejoin="round" fill="none"/></g><path d="M 528 467.95 L 524 461.95 L 532 461.95 Z" fill="#E8C9E3" stroke="none"/><text x="732.43" y="422.15" fill="#E8C9E3" font-family="-apple-system, BlinkMacSystemFont, 'Segoe UI', system-ui, sans-serif" font-size="12" font-weight="400" text-anchor="middle" dominant-baseline="central">Protects Production Scripts</text><g clip-path="url(#clip-25)"><path d="M743,357.1L743,386.35C743,386.35,743,396.35,743,396.35L743,396.35C743,399.11142374915397,745.238576250846,401.35,748,401.35L809,401.35C813.4182779986463,401.35,817,404.93172200135365,817,409.35L817,411.75C817,411.75,817,432.55000000000007,817,432.55000000000007L817,628.2375000000001C817,628.2375000000001,817,1040.4125000000001,817,1040.4125000000001L817,1287.7125C817,1287.7125,817,1410.1374999999998,817,1410.1374999999998L817,1455.9499999999998C817,1455.9499999999998,817,1486.75,817,1486.75L817,1486.75C817,1486.75,817,1517.5499999999997,817,1517.5499999999997L817,1581.3999999999999" stroke="#D4E8C9" stroke-width="1" stroke-linecap="round" stroke-linejoin="round" fill="none"/></g><path d="M 817 1581.4 L 813 1575.4 L 821 1575.4 Z" fill="#D4E8C9" stroke="none"/><text x="816.01" y="1236.5" fill="#D4E8C9" font-family="-apple-system, BlinkMacSystemFont, 'Segoe UI', system-ui, sans-serif" font-size="12" font-weight="400" text-anchor="middle" dominant-baseline="central">Gates Deployment</text><g clip-path="url(#clip-26)"><path d="M309,1154.45L309,1180.2C309,1180.2,309,1197.2,309,1197.2L309,1200.7C309,1200.7,309,1210.7,309,1210.7L309,1210.7C309,1213.461423749154,306.76142374915395,1215.7,304,1215.7L265,1215.7C260.5817220013536,1215.7,257,1219.2817220013537,257,1223.7L257,1249.3C257,1253.7182779986463,260.5817220013536,1257.3,265,1257.3L299,1257.3C301.76142374915395,1257.3,304,1259.538576250846,304,1262.3L304,1262.3C304,1262.4303584704187,304.19419915434304,1272.1657677004841,304.1993977925925,1272.2960224699564L307.1629711751663,1346.55" stroke="#D7E8C9" stroke-width="1" stroke-linecap="round" stroke-linejoin="round" fill="none"/></g><path d="M 307.16 1346.55 L 302.93 1340.71 L 310.92 1340.4 Z" fill="#D7E8C9" stroke="none"/><text x="256.85" y="1236.5" fill="#D7E8C9" font-family="-apple-system, BlinkMacSystemFont, 'Segoe UI', system-ui, sans-serif" font-size="12" font-weight="400" text-anchor="middle" dominant-baseline="central">1. Write Clean Features</text><g clip-path="url(#clip-27)"><path d="M315.46534653465346,1413.55L317.98216431794594,1425.654695052978C318.10813560458257,1426.2605569553732,319,1434.9311806323078,319,1435.55L319,1435.55C319,1438.3114237491538,321.23857625084605,1440.55,324,1440.55L673,1440.55C677.4182779986463,1440.55,681,1436.9682779986463,681,1432.55L681,1394.7375C681,1394.7375,681,1303.1125,681,1303.1125L681,1025.0125C681,1025.0125,681,643.6375,681,643.6375L681,460.95000000000005C681,456.53172200135367,677.4182779986463,452.95000000000005,673,452.95000000000005L543,452.95000000000005C540.238576250846,452.95000000000005,538,455.1885762508461,538,457.95000000000005L538,457.95000000000005C538,457.95000000000005,538,467.95000000000005,538,467.95000000000005L538,526.575C538,526.575,538,605.825,538,605.825L538,645.45" stroke="#E8D2C9" stroke-width="1" stroke-linecap="round" stroke-linejoin="round" fill="none"/></g><path d="M 538 645.45 L 534 639.45 L 542 639.45 Z" fill="#E8D2C9" stroke="none"/><text x="680.54" y="1236.5" fill="#E8D2C9" font-family="-apple-system, BlinkMacSystemFont, 'Segoe UI', system-ui, sans-serif" font-size="12" font-weight="400" text-anchor="middle" dominant-baseline="central">2. Read Historical Features</text><g clip-path="url(#clip-28)"><path d="M533,714.45L533,743.7C533,743.7,533,753.7,533,753.7L533,758.2C533,758.4761423749154,532.7761423749154,758.7,532.5,758.7L532.5,758.7C532.2238576250846,758.7,532,758.9238576250847,532,759.2L532,791.5125C532,791.5125,532,857.1375,532,857.1375L532,963.6375C532,963.6375,532,1125.0125,532,1125.0125L532,1200.7C532,1200.7,532,1210.7,532,1210.7L532,1210.7C532,1213.461423749154,529.761423749154,1215.7,527,1215.7L422,1215.7C417.5817220013536,1215.7,414,1219.2817220013537,414,1223.7L414,1249.3C414,1253.7182779986463,410.4182779986464,1257.3,406,1257.3L319,1257.3C316.23857625084605,1257.3,314,1259.538576250846,314,1262.3L314,1262.3C314,1262.458592101218,313.76411424360305,1272.1356580061367,313.75638723143294,1272.2940617556244L310.1341463414634,1346.55" stroke="#D7E8C9" stroke-width="1" stroke-linecap="round" stroke-linejoin="round" fill="none"/></g><path d="M 310.13 1346.55 L 306.43 1340.36 L 314.42 1340.75 Z" fill="#D7E8C9" stroke="none"/><text x="413.79" y="1236.5" fill="#D7E8C9" font-family="-apple-system, BlinkMacSystemFont, 'Segoe UI', system-ui, sans-serif" font-size="12" font-weight="400" text-anchor="middle" dominant-baseline="central">3. Write Predicted Future Data</text><g clip-path="url(#clip-29)"><path d="M543,714.45L543,731.575C543,731.575,543,765.825,543,765.825L543,786.5125C543,786.5125,543,862.1375,543,862.1375L543,963.6375C543,963.6375,543,1125.0125,543,1125.0125L543,1200.7C543,1200.7,543,1210.7,543,1210.7L543,1214.2C543,1215.0284271247463,543.6715728752538,1215.7,544.5,1215.7L544.5,1215.7C545.3284271247462,1215.7,546,1216.3715728752538,546,1217.2L546,1241.5C546,1241.5,546,1293.1,546,1293.1L546,1346.55" stroke="#D7E8C9" stroke-width="1" stroke-linecap="round" stroke-linejoin="round" fill="none"/></g><path d="M 546 1346.55 L 542 1340.55 L 550 1340.55 Z" fill="#D7E8C9" stroke="none"/><text x="545.36" y="1236.5" fill="#D7E8C9" font-family="-apple-system, BlinkMacSystemFont, 'Segoe UI', system-ui, sans-serif" font-size="12" font-weight="400" text-anchor="middle" dominant-baseline="central">Save Weights</text><g clip-path="url(#clip-30)"><path d="M308.83168316831683,1413.55L308.91584158415844,1422.05C308.9163943285757,1422.105827186138,309,1438.9945866931814,309,1439.050416615611L309,1442.55C309,1446.9682779986463,312.5817220013536,1450.55,317,1450.55L681,1450.55C685.4182779986463,1450.55,689,1454.1317220013536,689,1458.55L689,1476.35C689,1476.35,689,1527.9499999999998,689,1527.9499999999998L689,1571.3999999999999C689,1571.3999999999999,689,1677.6499999999999,689,1677.6499999999999L689,1683.6499999999999C689,1683.6499999999999,689,1777.8999999999999,689,1777.8999999999999L689,1783.8999999999999C689,1783.8999999999999,689,1866.1499999999999,689,1866.1499999999999L689,1881.7124999999999C689,1881.7124999999999,689,1932.8374999999999,689,1932.8374999999999L689,1958.3999999999999" stroke="#D4E8C9" stroke-width="1" stroke-linecap="round" stroke-linejoin="round" fill="none"/></g><path d="M 689 1958.4 L 685 1952.4 L 693 1952.4 Z" fill="#D4E8C9" stroke="none"/><text x="688.13" y="1471.35" fill="#D4E8C9" font-family="-apple-system, BlinkMacSystemFont, 'Segoe UI', system-ui, sans-serif" font-size="12" font-weight="400" text-anchor="middle" dominant-baseline="central">Fetch Live Predictions</text><path d="M694,2027.3999999999999L694,2051.6499999999996C694,2051.6499999999996,694,2071.6499999999996,694,2071.6499999999996L694,2081.6499999999996" stroke="#D6E8C9" stroke-width="1" stroke-linecap="round" stroke-linejoin="round" fill="none"/><path d="M 694 2081.65 L 690 2075.65 L 698 2075.65 Z" fill="#D6E8C9" stroke="none"/><g clip-path="url(#clip-31)"><path d="M302.1980198019802,1413.55L300.5990099009901,1422.05C300.41789092009856,1423.0127903721077,299,1438.2194161209372,299,1439.1990943261976L299,1466.35C299,1466.35,299,1537.9499999999998,299,1537.9499999999998L299,1581.3999999999999" stroke="#E8DFC9" stroke-width="1" stroke-linecap="round" stroke-linejoin="round" fill="none"/></g><path d="M 299 1581.4 L 295 1575.4 L 303 1575.4 Z" fill="#E8DFC9" stroke="none"/><text x="298.23" y="1471.35" fill="#E8DFC9" font-family="-apple-system, BlinkMacSystemFont, 'Segoe UI', system-ui, sans-serif" font-size="12" font-weight="400" text-anchor="middle" dominant-baseline="central">Read Forecasts vs Actuals</text><g clip-path="url(#clip-32)"><path d="M299,1756.6499999999999L299,1773.7749999999999C299,1773.7749999999999,299,1808.0249999999999,299,1808.0249999999999L299,2063.6499999999996C299,2068.068277998646,295.4182779986464,2071.6499999999996,291,2071.6499999999996L100,2071.6499999999996C95.58172200135365,2071.6499999999996,92,2068.068277998646,92,2063.6499999999996L92,1926.7749999999996C92,1926.7749999999996,92,1637.025,92,1637.025L92,1588.7749999999999C92,1588.7749999999999,92,1353.925,92,1353.925L92,1353.925C92,1353.925,92,1119.075,92,1119.075L92,1025.0125C92,1025.0125,92,643.6375,92,643.6375L92,460.95000000000005C92,456.53172200135367,95.58172200135365,452.95000000000005,100,452.95000000000005L304,452.95000000000005C306.76142374915395,452.95000000000005,309,455.1885762508461,309,457.95000000000005L309,457.95000000000005C309,457.95000000000005,309,467.95000000000005,309,467.95000000000005L309,634.95" stroke="#E8C9E3" stroke-width="1" stroke-linecap="round" stroke-linejoin="round" fill="none"/></g><path d="M 309 634.95 L 305 628.95 L 313 628.95 Z" fill="#E8C9E3" stroke="none"/><text x="91.82" y="1341.13" fill="#E8C9E3" font-family="-apple-system, BlinkMacSystemFont, 'Segoe UI', system-ui, sans-serif" font-size="12" font-weight="400" text-anchor="middle" dominant-baseline="central">Trigger Re-Training Workflow</text><text x="91.82" y="1356.73" fill="#E8C9E3" font-family="-apple-system, BlinkMacSystemFont, 'Segoe UI', system-ui, sans-serif" font-size="12" font-weight="400" text-anchor="middle" dominant-baseline="central">(Performance Feedback)</text></svg>