<svg xmlns="http://www.w3.org/2000/svg" width="869" height="1789" viewBox="0 0 869 1789" role="img" aria-label="ToDiagram Export"><style type="text/css"><![CDATA[
@import url('https://fonts.googleapis.com/css2?family=Geist+Mono:wght@100..900&display=swap');
svg { text-rendering: optimizeLegibility; shape-rendering: geometricPrecision; }
]]></style><defs><clipPath id="clip-1"><path d="M 548 164.85 h 242 a 4 4 0 0 1 4 4 v 213.5 a 4 4 0 0 1 -4 4 h -242 a 4 4 0 0 1 -4 -4 v -213.5 a 4 4 0 0 1 4 -4 Z"/></clipPath><clipPath id="clip-2"><path d="M 556 239.1 h 226 v 118 h -226 Z"/></clipPath><clipPath id="clip-3"><path d="M 106 467.95 h 462 a 4 4 0 0 1 4 4 v 724.75 a 4 4 0 0 1 -4 4 h -462 a 4 4 0 0 1 -4 -4 v -724.75 a 4 4 0 0 1 4 -4 Z"/></clipPath><clipPath id="clip-4"><path d="M 143 768.7 h 134 v 94 h -134 Z"/></clipPath><clipPath id="clip-5"><path d="M 122 634.95 h 176 v 45 h -176 Z"/></clipPath><clipPath id="clip-6"><path d="M 118 904.95 h 183 a 4 4 0 0 1 4 4 v 270.75 a 4 4 0 0 1 -4 4 h -183 a 4 4 0 0 1 -4 -4 v -270.75 a 4 4 0 0 1 4 -4 Z"/></clipPath><clipPath id="clip-7"><path d="M 135 979.2 h 150 v 69 h -150 Z"/></clipPath><clipPath id="clip-8"><path d="M 126 1085.45 h 167 v 69 h -167 Z"/></clipPath><clipPath id="clip-9"><path d="M 322 571.2 h 234 a 4 4 0 0 1 4 4 v 164.5 a 4 4 0 0 1 -4 4 h -234 a 4 4 0 0 1 -4 -4 v -164.5 a 4 4 0 0 1 4 -4 Z"/></clipPath><clipPath id="clip-10"><path d="M 330 645.45 h 218 v 69 h -218 Z"/></clipPath><clipPath id="clip-11"><path d="M 633 1446.32 h 220 a 4 4 0 0 1 4 4 v 164.5 a 4 4 0 0 1 -4 4 h -220 a 4 4 0 0 1 -4 -4 v -164.5 a 4 4 0 0 1 4 -4 Z"/></clipPath><clipPath id="clip-12"><path d="M 655 1520.57 h 176 v 69 h -176 Z"/></clipPath><clipPath id="clip-13"><path d="M 371 1410.9 h 234 a 4 4 0 0 1 4 4 v 270.75 a 4 4 0 0 1 -4 4 h -234 a 4 4 0 0 1 -4 -4 v -270.75 a 4 4 0 0 1 4 -4 Z"/></clipPath><clipPath id="clip-14"><path d="M 396 1485.15 h 184 v 69 h -184 Z"/></clipPath><clipPath id="clip-15"><path d="M 379 1591.4 h 218 v 69 h -218 Z"/></clipPath><clipPath id="clip-16"><path d="M 568 12 h 201 v 69 h -201 Z"/></clipPath><clipPath id="clip-17"><path d="M 680 1714.65 h 125 v 45 h -125 Z"/></clipPath><clipPath id="clip-18"><path d="M 0 0 h 869 v 1789 h -869 Z M 625 118.25000000000001 h 87.6328125 v 21.6 h -87.6328125 Z" clip-rule="evenodd"/></clipPath><clipPath id="clip-19"><path d="M 0 0 h 869 v 1789 h -869 Z M 589 411.35 h 148.869140625 v 21.6 h -148.869140625 Z" clip-rule="evenodd"/></clipPath><clipPath id="clip-20"><path d="M 0 0 h 869 v 1789 h -869 Z M 695 1225.7 h 104.015625 v 21.6 h -104.015625 Z" clip-rule="evenodd"/></clipPath><clipPath id="clip-21"><path d="M 0 0 h 869 v 1789 h -869 Z M 146 1225.7 h 127.705078125 v 21.6 h -127.705078125 Z" clip-rule="evenodd"/></clipPath><clipPath id="clip-22"><path d="M 0 0 h 869 v 1789 h -869 Z M 592 823.5250000000001 h 145.08984375 v 21.6 h -145.08984375 Z" clip-rule="evenodd"/></clipPath><clipPath id="clip-23"><path d="M 0 0 h 869 v 1789 h -869 Z M 489 1225.7 h 165.5859375 v 21.6 h -165.5859375 Z" clip-rule="evenodd"/></clipPath><clipPath id="clip-24"><path d="M 0 0 h 869 v 1789 h -869 Z M 394 1225.7 h 76.728515625 v 21.6 h -76.728515625 Z" clip-rule="evenodd"/></clipPath><clipPath id="clip-25"><path d="M 0 0 h 869 v 1789 h -869 Z M 578 1364.3 h 120.2578125 v 21.6 h -120.2578125 Z" clip-rule="evenodd"/></clipPath><clipPath id="clip-26"><path d="M 0 0 h 869 v 1789 h -869 Z M 417 1364.3 h 140.455078125 v 21.6 h -140.455078125 Z" clip-rule="evenodd"/></clipPath><clipPath id="clip-27"><path d="M 0 0 h 869 v 1789 h -869 Z M 12 1292.2 h 159.6328125 v 37.2 h -159.6328125 Z" clip-rule="evenodd"/></clipPath></defs><path d="M 550 166.85 h 244 a 4 4 0 0 1 4 4 v 215.5 a 4 4 0 0 1 -4 4 h -244 a 4 4 0 0 1 -4 -4 v -215.5 a 4 4 0 0 1 4 -4 Z" fill="rgba(29, 24, 41, 0.08)" stroke="none"/><path d="M 548 164.85 h 242 a 4 4 0 0 1 4 4 v 213.5 a 4 4 0 0 1 -4 4 h -242 a 4 4 0 0 1 -4 -4 v -213.5 a 4 4 0 0 1 4 -4 Z" fill="#3A3051" stroke="none"/><g clip-path="url(#clip-1)"></g><text x="668.57" y="191.43" fill="#D3C9E8" font-family="'Geist Mono', ui-monospace, SFMono-Regular, Menlo, Monaco, Consolas, 'Liberation Mono', 'Courier New', monospace" font-size="14" font-weight="300" text-anchor="middle" dominant-baseline="alphabetic">CI Quality Gate (CircleCI)</text><path d="M 548 164.85 h 242 a 4 4 0 0 1 4 4 v 213.5 a 4 4 0 0 1 -4 4 h -242 a 4 4 0 0 1 -4 -4 v -213.5 a 4 4 0 0 1 4 -4 Z" stroke="#604F86" stroke-width="1.5" stroke-linecap="round" stroke-linejoin="round" fill="none"/><path d="M 556 239.1 h 226 v 118 h -226 Z" fill="#514370" stroke="none"/><g clip-path="url(#clip-2)"><rect x="556" y="239.1" width="226" height="119" fill="#514370" stroke="none"/></g><text x="668.57" y="265.71" fill="#D3C9E8" font-family="'Geist Mono', ui-monospace, SFMono-Regular, Menlo, Monaco, Consolas, 'Liberation Mono', 'Courier New', monospace" font-size="14" font-weight="300" text-anchor="middle" dominant-baseline="alphabetic">Code Validation</text><text x="668.57" y="290.48" fill="#D3C9E8" font-family="'Geist Mono', ui-monospace, SFMono-Regular, Menlo, Monaco, Consolas, 'Liberation Mono', 'Courier New', monospace" font-size="14" font-weight="300" text-anchor="middle" dominant-baseline="alphabetic">• Format &amp; Lint</text><text x="668.57" y="314.29" fill="#D3C9E8" font-family="'Geist Mono', ui-monospace, SFMono-Regular, Menlo, Monaco, Consolas, 'Liberation Mono', 'Courier New', monospace" font-size="14" font-weight="300" text-anchor="middle" dominant-baseline="alphabetic">• Type Check</text><text x="668.57" y="339.05" fill="#D3C9E8" font-family="'Geist Mono', ui-monospace, SFMono-Regular, Menlo, Monaco, Consolas, 'Liberation Mono', 'Courier New', monospace" font-size="14" font-weight="300" text-anchor="middle" dominant-baseline="alphabetic">• Unit/Integration Tests</text><path d="M 556 239.1 h 226 v 118 h -226 Z" stroke="#8979AF" stroke-width="1" stroke-linecap="round" stroke-linejoin="round" fill="none"/><path d="M 108 469.95 h 464 a 4 4 0 0 1 4 4 v 726.75 a 4 4 0 0 1 -4 4 h -464 a 4 4 0 0 1 -4 -4 v -726.75 a 4 4 0 0 1 4 -4 Z" fill="rgba(41, 24, 38, 0.08)" stroke="none"/><path d="M 106 467.95 h 462 a 4 4 0 0 1 4 4 v 724.75 a 4 4 0 0 1 -4 4 h -462 a 4 4 0 0 1 -4 -4 v -724.75 a 4 4 0 0 1 4 -4 Z" fill="#51304C" stroke="none"/><g clip-path="url(#clip-3)"></g><text x="337.14" y="494.29" fill="#E8C9E3" font-family="'Geist Mono', ui-monospace, SFMono-Regular, Menlo, Monaco, Consolas, 'Liberation Mono', 'Courier New', monospace" font-size="14" font-weight="300" text-anchor="middle" dominant-baseline="alphabetic">1. Daily Pipeline</text><text x="337.14" y="519.05" fill="#E8C9E3" font-family="'Geist Mono', ui-monospace, SFMono-Regular, Menlo, Monaco, Consolas, 'Liberation Mono', 'Courier New', monospace" font-size="14" font-weight="300" text-anchor="middle" dominant-baseline="alphabetic">(GitHub Actions)</text><path d="M 106 467.95 h 462 a 4 4 0 0 1 4 4 v 724.75 a 4 4 0 0 1 -4 4 h -462 a 4 4 0 0 1 -4 -4 v -724.75 a 4 4 0 0 1 4 -4 Z" stroke="#864F7D" stroke-width="1.5" stroke-linecap="round" stroke-linejoin="round" fill="none"/><path d="M 143 768.7 h 134 v 94 h -134 Z" fill="#706743" stroke="none"/><g clip-path="url(#clip-4)"><rect x="143" y="768.7" width="134" height="95" fill="#706743" stroke="none"/></g><text x="209.52" y="795.24" fill="#E8E2C9" font-family="'Geist Mono', ui-monospace, SFMono-Regular, Menlo, Monaco, Consolas, 'Liberation Mono', 'Courier New', monospace" font-size="14" font-weight="300" text-anchor="middle" dominant-baseline="alphabetic">extractor.py</text><text x="209.52" y="820" fill="#E8E2C9" font-family="'Geist Mono', ui-monospace, SFMono-Regular, Menlo, Monaco, Consolas, 'Liberation Mono', 'Courier New', monospace" font-size="14" font-weight="300" text-anchor="middle" dominant-baseline="alphabetic">Collect Data</text><text x="209.52" y="844.76" fill="#E8E2C9" font-family="'Geist Mono', ui-monospace, SFMono-Regular, Menlo, Monaco, Consolas, 'Liberation Mono', 'Courier New', monospace" font-size="14" font-weight="300" text-anchor="middle" dominant-baseline="alphabetic">from NEMS API</text><path d="M 143 768.7 h 134 v 94 h -134 Z" stroke="#AFA479" stroke-width="1" stroke-linecap="round" stroke-linejoin="round" fill="none"/><path d="M 122 634.95 h 176 v 45 h -176 Z" fill="#704369" stroke="none"/><g clip-path="url(#clip-5)"><rect x="122" y="634.95" width="176" height="46" fill="#704369" stroke="none"/></g><text x="209.52" y="661.9" fill="#E8C9E3" font-family="'Geist Mono', ui-monospace, SFMono-Regular, Menlo, Monaco, Consolas, 'Liberation Mono', 'Courier New', monospace" font-size="14" font-weight="300" text-anchor="middle" dominant-baseline="alphabetic">Daily Cron Trigger</text><path d="M 122 634.95 h 176 v 45 h -176 Z" stroke="#AF79A6" stroke-width="1" stroke-linecap="round" stroke-linejoin="round" fill="none"/><path d="M 120 906.95 h 185 a 4 4 0 0 1 4 4 v 272.75 a 4 4 0 0 1 -4 4 h -185 a 4 4 0 0 1 -4 -4 v -272.75 a 4 4 0 0 1 4 -4 Z" fill="rgba(41, 24, 38, 0.08)" stroke="none"/><path d="M 118 904.95 h 183 a 4 4 0 0 1 4 4 v 270.75 a 4 4 0 0 1 -4 4 h -183 a 4 4 0 0 1 -4 -4 v -270.75 a 4 4 0 0 1 4 -4 Z" fill="#51304C" stroke="none"/><g clip-path="url(#clip-6)"></g><text x="209.52" y="931.43" fill="#E8C9E3" font-family="'Geist Mono', ui-monospace, SFMono-Regular, Menlo, Monaco, Consolas, 'Liberation Mono', 'Courier New', monospace" font-size="14" font-weight="300" text-anchor="middle" dominant-baseline="alphabetic">2. Prepare Data</text><path d="M 118 904.95 h 183 a 4 4 0 0 1 4 4 v 270.75 a 4 4 0 0 1 -4 4 h -183 a 4 4 0 0 1 -4 -4 v -270.75 a 4 4 0 0 1 4 -4 Z" stroke="#864F7D" stroke-width="1.5" stroke-linecap="round" stroke-linejoin="round" fill="none"/><path d="M 135 979.2 h 150 v 69 h -150 Z" fill="#594370" stroke="none"/><g clip-path="url(#clip-7)"><rect x="135" y="979.2" width="150" height="70" fill="#594370" stroke="none"/></g><text x="209.52" y="1005.71" fill="#D8C9E8" font-family="'Geist Mono', ui-monospace, SFMono-Regular, Menlo, Monaco, Consolas, 'Liberation Mono', 'Courier New', monospace" font-size="14" font-weight="300" text-anchor="middle" dominant-baseline="alphabetic">processor.py</text><text x="209.52" y="1030.48" fill="#D8C9E8" font-family="'Geist Mono', ui-monospace, SFMono-Regular, Menlo, Monaco, Consolas, 'Liberation Mono', 'Courier New', monospace" font-size="14" font-weight="300" text-anchor="middle" dominant-baseline="alphabetic">Preprocess Data</text><path d="M 135 979.2 h 150 v 69 h -150 Z" stroke="#9379AF" stroke-width="1" stroke-linecap="round" stroke-linejoin="round" fill="none"/><path d="M 126 1085.45 h 167 v 69 h -167 Z" fill="#5f4370" stroke="none"/><g clip-path="url(#clip-8)"><rect x="126" y="1085.45" width="167" height="70" fill="#5f4370" stroke="none"/></g><text x="209.52" y="1111.43" fill="#DDC9E8" font-family="'Geist Mono', ui-monospace, SFMono-Regular, Menlo, Monaco, Consolas, 'Liberation Mono', 'Courier New', monospace" font-size="14" font-weight="300" text-anchor="middle" dominant-baseline="alphabetic">feature_eng.py</text><text x="209.52" y="1136.19" fill="#DDC9E8" font-family="'Geist Mono', ui-monospace, SFMono-Regular, Menlo, Monaco, Consolas, 'Liberation Mono', 'Courier New', monospace" font-size="14" font-weight="300" text-anchor="middle" dominant-baseline="alphabetic">Engineer Features</text><path d="M 126 1085.45 h 167 v 69 h -167 Z" stroke="#9A79AF" stroke-width="1" stroke-linecap="round" stroke-linejoin="round" fill="none"/><path d="M 324 573.2 h 236 a 4 4 0 0 1 4 4 v 166.5 a 4 4 0 0 1 -4 4 h -236 a 4 4 0 0 1 -4 -4 v -166.5 a 4 4 0 0 1 4 -4 Z" fill="rgba(41, 24, 38, 0.08)" stroke="none"/><path d="M 322 571.2 h 234 a 4 4 0 0 1 4 4 v 164.5 a 4 4 0 0 1 -4 4 h -234 a 4 4 0 0 1 -4 -4 v -164.5 a 4 4 0 0 1 4 -4 Z" fill="#51304C" stroke="none"/><g clip-path="url(#clip-9)"></g><text x="439.05" y="598.1" fill="#E8C9E3" font-family="'Geist Mono', ui-monospace, SFMono-Regular, Menlo, Monaco, Consolas, 'Liberation Mono', 'Courier New', monospace" font-size="14" font-weight="300" text-anchor="middle" dominant-baseline="alphabetic">3. Train &amp; Predict Models</text><path d="M 322 571.2 h 234 a 4 4 0 0 1 4 4 v 164.5 a 4 4 0 0 1 -4 4 h -234 a 4 4 0 0 1 -4 -4 v -164.5 a 4 4 0 0 1 4 -4 Z" stroke="#864F7D" stroke-width="1.5" stroke-linecap="round" stroke-linejoin="round" fill="none"/><path d="M 330 645.45 h 218 v 69 h -218 Z" fill="#705043" stroke="none"/><g clip-path="url(#clip-10)"><rect x="330" y="645.45" width="218" height="70" fill="#705043" stroke="none"/></g><text x="439.05" y="671.43" fill="#E8D2C9" font-family="'Geist Mono', ui-monospace, SFMono-Regular, Menlo, Monaco, Consolas, 'Liberation Mono', 'Courier New', monospace" font-size="14" font-weight="300" text-anchor="middle" dominant-baseline="alphabetic">model.py &amp; benchmark.py</text><text x="439.05" y="696.19" fill="#E8D2C9" font-family="'Geist Mono', ui-monospace, SFMono-Regular, Menlo, Monaco, Consolas, 'Liberation Mono', 'Courier New', monospace" font-size="14" font-weight="300" text-anchor="middle" dominant-baseline="alphabetic">Prophet + skforecast</text><path d="M 330 645.45 h 218 v 69 h -218 Z" stroke="#AF8879" stroke-width="1" stroke-linecap="round" stroke-linejoin="round" fill="none"/><path d="M 635 1448.32 h 222 a 4 4 0 0 1 4 4 v 166.5 a 4 4 0 0 1 -4 4 h -222 a 4 4 0 0 1 -4 -4 v -166.5 a 4 4 0 0 1 4 -4 Z" fill="rgba(32, 41, 24, 0.08)" stroke="none"/><path d="M 633 1446.32 h 220 a 4 4 0 0 1 4 4 v 164.5 a 4 4 0 0 1 -4 4 h -220 a 4 4 0 0 1 -4 -4 v -164.5 a 4 4 0 0 1 4 -4 Z" fill="#3F5130" stroke="none"/><g clip-path="url(#clip-11)"></g><text x="742.86" y="1473.33" fill="#D7E8C9" font-family="'Geist Mono', ui-monospace, SFMono-Regular, Menlo, Monaco, Consolas, 'Liberation Mono', 'Courier New', monospace" font-size="14" font-weight="300" text-anchor="middle" dominant-baseline="alphabetic">4. Live Hosting (Render)</text><path d="M 633 1446.32 h 220 a 4 4 0 0 1 4 4 v 164.5 a 4 4 0 0 1 -4 4 h -220 a 4 4 0 0 1 -4 -4 v -164.5 a 4 4 0 0 1 4 -4 Z" stroke="#68864F" stroke-width="1.5" stroke-linecap="round" stroke-linejoin="round" fill="none"/><path d="M 655 1520.57 h 176 v 69 h -176 Z" fill="#577043" stroke="none"/><g clip-path="url(#clip-12)"><rect x="655" y="1520.57" width="176" height="70" fill="#577043" stroke="none"/></g><text x="742.86" y="1546.67" fill="#D7E8C9" font-family="'Geist Mono', ui-monospace, SFMono-Regular, Menlo, Monaco, Consolas, 'Liberation Mono', 'Courier New', monospace" font-size="14" font-weight="300" text-anchor="middle" dominant-baseline="alphabetic">streamlit_app.py</text><text x="742.86" y="1571.43" fill="#D7E8C9" font-family="'Geist Mono', ui-monospace, SFMono-Regular, Menlo, Monaco, Consolas, 'Liberation Mono', 'Courier New', monospace" font-size="14" font-weight="300" text-anchor="middle" dominant-baseline="alphabetic">Streamlit Frontend</text><path d="M 655 1520.57 h 176 v 69 h -176 Z" stroke="#91AF79" stroke-width="1" stroke-linecap="round" stroke-linejoin="round" fill="none"/><path d="M 373 1412.9 h 236 a 4 4 0 0 1 4 4 v 272.75 a 4 4 0 0 1 -4 4 h -236 a 4 4 0 0 1 -4 -4 v -272.75 a 4 4 0 0 1 4 -4 Z" fill="rgba(24, 41, 30, 0.08)" stroke="none"/><path d="M 371 1410.9 h 234 a 4 4 0 0 1 4 4 v 270.75 a 4 4 0 0 1 -4 4 h -234 a 4 4 0 0 1 -4 -4 v -270.75 a 4 4 0 0 1 4 -4 Z" fill="#30513C" stroke="none"/><g clip-path="url(#clip-13)"></g><text x="487.62" y="1437.14" fill="#C9E8D4" font-family="'Geist Mono', ui-monospace, SFMono-Regular, Menlo, Monaco, Consolas, 'Liberation Mono', 'Courier New', monospace" font-size="14" font-weight="300" text-anchor="middle" dominant-baseline="alphabetic">5. Performance Monitor</text><path d="M 371 1410.9 h 234 a 4 4 0 0 1 4 4 v 270.75 a 4 4 0 0 1 -4 4 h -234 a 4 4 0 0 1 -4 -4 v -270.75 a 4 4 0 0 1 4 -4 Z" stroke="#4F8663" stroke-width="1.5" stroke-linecap="round" stroke-linejoin="round" fill="none"/><path d="M 396 1485.15 h 184 v 69 h -184 Z" fill="#437053" stroke="none"/><g clip-path="url(#clip-14)"><rect x="396" y="1485.15" width="184" height="70" fill="#437053" stroke="none"/></g><text x="487.62" y="1511.43" fill="#C9E8D4" font-family="'Geist Mono', ui-monospace, SFMono-Regular, Menlo, Monaco, Consolas, 'Liberation Mono', 'Courier New', monospace" font-size="14" font-weight="300" text-anchor="middle" dominant-baseline="alphabetic">Daily GitHub Action</text><text x="487.62" y="1536.19" fill="#C9E8D4" font-family="'Geist Mono', ui-monospace, SFMono-Regular, Menlo, Monaco, Consolas, 'Liberation Mono', 'Courier New', monospace" font-size="14" font-weight="300" text-anchor="middle" dominant-baseline="alphabetic">Validation Check</text><path d="M 396 1485.15 h 184 v 69 h -184 Z" stroke="#79AF8C" stroke-width="1" stroke-linecap="round" stroke-linejoin="round" fill="none"/><path d="M 379 1591.4 h 218 v 69 h -218 Z" fill="#70436c" stroke="none"/><g clip-path="url(#clip-15)"><rect x="379" y="1591.4" width="218" height="70" fill="#70436c" stroke="none"/></g><text x="487.62" y="1618.1" fill="#E8C9E5" font-family="'Geist Mono', ui-monospace, SFMono-Regular, Menlo, Monaco, Consolas, 'Liberation Mono', 'Courier New', monospace" font-size="14" font-weight="300" text-anchor="middle" dominant-baseline="alphabetic">Alarm Trigger</text><text x="487.62" y="1641.9" fill="#E8C9E5" font-family="'Geist Mono', ui-monospace, SFMono-Regular, Menlo, Monaco, Consolas, 'Liberation Mono', 'Courier New', monospace" font-size="14" font-weight="300" text-anchor="middle" dominant-baseline="alphabetic">(Upon Workflow Failure)</text><path d="M 379 1591.4 h 218 v 69 h -218 Z" stroke="#AF79AA" stroke-width="1" stroke-linecap="round" stroke-linejoin="round" fill="none"/><path d="M 570 14 h 203 v 71 h -203 Z" fill="rgba(34, 54, 56, 0.08)" stroke="none"/><path d="M 568 12 h 201 v 69 h -201 Z" fill="#436c70" stroke="none"/><g clip-path="url(#clip-16)"><rect x="568" y="12" width="201" height="70" fill="#436c70" stroke="none"/></g><text x="668.57" y="38.1" fill="#C9E5E8" font-family="'Geist Mono', ui-monospace, SFMono-Regular, Menlo, Monaco, Consolas, 'Liberation Mono', 'Courier New', monospace" font-size="14" font-weight="300" text-anchor="middle" dominant-baseline="alphabetic">Lineage Tracker</text><text x="668.57" y="62.86" fill="#C9E5E8" font-family="'Geist Mono', ui-monospace, SFMono-Regular, Menlo, Monaco, Consolas, 'Liberation Mono', 'Courier New', monospace" font-size="14" font-weight="300" text-anchor="middle" dominant-baseline="alphabetic">(Git Version Control)</text><path d="M 568 12 h 201 v 69 h -201 Z" stroke="#79AAAF" stroke-width="1" stroke-linecap="round" stroke-linejoin="round" fill="none"/><path d="M 531 1287.58 C 531 1271.02, 742 1271.02, 742 1287.58 L 742 1340.02 C 742 1356.58, 531 1356.58, 531 1340.02 Z" fill="rgba(34, 55, 56, 0.08)" stroke="none"/><path d="M 529 1285.34 C 529 1269.26, 738 1269.26, 738 1285.34 L 738 1336.26 C 738 1352.34, 529 1352.34, 529 1336.26 Z" fill="#436e70" stroke="none"/><path d="M 529 1285.34 C 529 1269.26, 738 1269.26, 738 1285.34 L 738 1336.26 C 738 1352.34, 529 1352.34, 529 1336.26 Z" stroke="#79ACAF" stroke-width="1" stroke-linecap="round" stroke-linejoin="round" fill="none"/><path d="M 529 1285.34 C 529 1293.38, 738 1293.38, 738 1285.34" stroke="#79ACAF" stroke-width="1" stroke-linecap="round" stroke-linejoin="round" fill="none"/><text x="633.5" y="1309.74" fill="#C9E7E8" font-family="'Geist Mono', ui-monospace, SFMono-Regular, Menlo, Monaco, Consolas, 'Liberation Mono', 'Courier New', monospace" font-size="14" font-weight="300" text-anchor="middle" dominant-baseline="central">Supabase Database</text><text x="633.5" y="1327.94" fill="#C9E7E8" font-family="'Geist Mono', ui-monospace, SFMono-Regular, Menlo, Monaco, Consolas, 'Liberation Mono', 'Courier New', monospace" font-size="14" font-weight="300" text-anchor="middle" dominant-baseline="central">Online + Offline Store</text><path d="M 285 1287.58 C 285 1271.02, 513 1271.02, 513 1287.58 L 513 1340.02 C 513 1356.58, 285 1356.58, 285 1340.02 Z" fill="rgba(46, 34, 56, 0.08)" stroke="none"/><path d="M 283 1285.34 C 283 1269.26, 509 1269.26, 509 1285.34 L 509 1336.26 C 509 1352.34, 283 1352.34, 283 1336.26 Z" fill="#5b4370" stroke="none"/><path d="M 283 1285.34 C 283 1269.26, 509 1269.26, 509 1285.34 L 509 1336.26 C 509 1352.34, 283 1352.34, 283 1336.26 Z" stroke="#9579AF" stroke-width="1" stroke-linecap="round" stroke-linejoin="round" fill="none"/><path d="M 283 1285.34 C 283 1293.38, 509 1293.38, 509 1285.34" stroke="#9579AF" stroke-width="1" stroke-linecap="round" stroke-linejoin="round" fill="none"/><text x="396" y="1309.74" fill="#DAC9E8" font-family="'Geist Mono', ui-monospace, SFMono-Regular, Menlo, Monaco, Consolas, 'Liberation Mono', 'Courier New', monospace" font-size="14" font-weight="300" text-anchor="middle" dominant-baseline="central">Model Artifact Storage</text><text x="396" y="1327.94" fill="#DAC9E8" font-family="'Geist Mono', ui-monospace, SFMono-Regular, Menlo, Monaco, Consolas, 'Liberation Mono', 'Courier New', monospace" font-size="14" font-weight="300" text-anchor="middle" dominant-baseline="central">(Git / Supabase Storage)</text><path d="M 682 1716.65 h 127 v 47 h -127 Z" fill="rgba(51, 34, 56, 0.08)" stroke="none"/><path d="M 680 1714.65 h 125 v 45 h -125 Z" fill="#654370" stroke="none"/><g clip-path="url(#clip-17)"><rect x="680" y="1714.65" width="125" height="46" fill="#654370" stroke="none"/></g><text x="742.86" y="1740.95" fill="#E1C9E8" font-family="'Geist Mono', ui-monospace, SFMono-Regular, Menlo, Monaco, Consolas, 'Liberation Mono', 'Courier New', monospace" font-size="14" font-weight="300" text-anchor="middle" dominant-baseline="alphabetic">User Browser</text><path d="M 680 1714.65 h 125 v 45 h -125 Z" stroke="#A179AF" stroke-width="1" stroke-linecap="round" stroke-linejoin="round" fill="none"/><path d="M210,679.95L210,768.7L210,768.7" stroke="#E8E2C9" stroke-width="1" stroke-linecap="round" stroke-linejoin="round" fill="none"/><path d="M 210 768.7 L 206 762.7 L 214 762.7 Z" fill="#E8E2C9" stroke="none"/><path d="M210,1048.2L210,1085.45L210,1085.45" stroke="#DDC9E8" stroke-width="1" stroke-linecap="round" stroke-linejoin="round" fill="none"/><path d="M 210 1085.45 L 206 1079.45 L 214 1079.45 Z" fill="#DDC9E8" stroke="none"/><path d="M210,862.7L210,881.325C210,881.325,210,918.575,210,918.575L210,979.2" stroke="#D8C9E8" stroke-width="1" stroke-linecap="round" stroke-linejoin="round" fill="none"/><path d="M 210 979.2 L 206 973.2 L 214 973.2 Z" fill="#D8C9E8" stroke="none"/><path d="M488,1554.1499999999999L488,1591.3999999999999L488,1591.3999999999999" stroke="#E8C9E5" stroke-width="1" stroke-linecap="round" stroke-linejoin="round" fill="none"/><path d="M 488 1591.4 L 484 1585.4 L 492 1585.4 Z" fill="#E8C9E5" stroke="none"/><g clip-path="url(#clip-18)"><path d="M669,81L669,120.425C669,120.425,669,199.27499999999998,669,199.27499999999998L669,239.1" stroke="#D3C9E8" stroke-width="1" stroke-linecap="round" stroke-linejoin="round" fill="none"/></g><path d="M 669 239.1 L 665 233.1 L 673 233.1 Z" fill="#D3C9E8" stroke="none"/><text x="668.82" y="129.05" fill="#D3C9E8" font-family="-apple-system, BlinkMacSystemFont, 'Segoe UI', system-ui, sans-serif" font-size="12" font-weight="400" text-anchor="middle" dominant-baseline="central">Code Push / PR</text><g clip-path="url(#clip-19)"><path d="M664,357.1L664,374.225C664,374.225,664,408.475,664,408.475L664,434.95000000000005C664,439.3682779986464,660.4182779986463,442.95000000000005,656,442.95000000000005L437,442.95000000000005C432.5817220013536,442.95000000000005,429,446.53172200135367,429,450.95000000000005L429,467.95000000000005" stroke="#E8C9E3" stroke-width="1" stroke-linecap="round" stroke-linejoin="round" fill="none"/></g><path d="M 429 467.95 L 425 461.95 L 433 461.95 Z" fill="#E8C9E3" stroke="none"/><text x="663.43" y="422.15" fill="#E8C9E3" font-family="-apple-system, BlinkMacSystemFont, 'Segoe UI', system-ui, sans-serif" font-size="12" font-weight="400" text-anchor="middle" dominant-baseline="central">Protects Production Scripts</text><g clip-path="url(#clip-20)"><path d="M674,357.1L674,386.35C674,386.35,674,396.35,674,396.35L674,396.35C674,399.11142374915397,676.238576250846,401.35,679,401.35L740,401.35C744.4182779986463,401.35,748,404.93172200135365,748,409.35L748,411.75C748,411.75,748,432.55000000000007,748,432.55000000000007L748,628.2375000000001C748,628.2375000000001,748,1040.4125000000001,748,1040.4125000000001L748,1278.65C748,1278.65,748,1342.9499999999998,748,1342.9499999999998L748,1342.9499999999998C748,1342.9499999999998,748,1407.25,748,1407.25L748,1408.2083333333333C748,1408.2083333333333,748,1474.425,748,1474.425L748,1520.5666666666666" stroke="#D7E8C9" stroke-width="1" stroke-linecap="round" stroke-linejoin="round" fill="none"/></g><path d="M 748 1520.57 L 744 1514.57 L 752 1514.57 Z" fill="#D7E8C9" stroke="none"/><text x="747.01" y="1236.5" fill="#D7E8C9" font-family="-apple-system, BlinkMacSystemFont, 'Segoe UI', system-ui, sans-serif" font-size="12" font-weight="400" text-anchor="middle" dominant-baseline="central">Gates Deployment</text><g clip-path="url(#clip-21)"><path d="M210,1154.45L210,1180.2C210,1180.2,210,1197.2,210,1197.2L210,1197.2C210,1197.2,210,1214.2,210,1214.2L210,1259.3C210,1263.7182779986463,213.58172200135365,1267.3,218,1267.3L618.8821524457717,1267.3C621.5122421465994,1267.3,624.5307929099994,1269.730472798418,625.0919540229885,1272.3L626.183908045977,1277.3" stroke="#C9E7E8" stroke-width="1" stroke-linecap="round" stroke-linejoin="round" fill="none"/></g><path d="M 626.18 1277.3 L 621 1272.29 L 628.81 1270.58 Z" fill="#C9E7E8" stroke="none"/><text x="209.85" y="1236.5" fill="#C9E7E8" font-family="-apple-system, BlinkMacSystemFont, 'Segoe UI', system-ui, sans-serif" font-size="12" font-weight="400" text-anchor="middle" dominant-baseline="central">1. Write Clean Features</text><g clip-path="url(#clip-22)"><path d="M640.0747663551402,1277.3L642.1275259789477,1266.8407009644095C643.09751961362,1261.8983524448888,648.6860768298455,1257.3,653.722712268282,1257.3L657,1257.3C661.4182779986463,1257.3,665,1253.7182779986463,665,1249.3L665,1246.9C665,1246.9,665,1226.1,665,1226.1L665,460.95000000000005C665,456.53172200135367,661.4182779986463,452.95000000000005,657,452.95000000000005L444,452.95000000000005C441.23857625084605,452.95000000000005,439,455.1885762508461,439,457.95000000000005L439,457.95000000000005C439,457.95000000000005,439,467.95000000000005,439,467.95000000000005L439,526.575C439,526.575,439,605.825,439,605.825L439,645.45" stroke="#E8D2C9" stroke-width="1" stroke-linecap="round" stroke-linejoin="round" fill="none"/></g><path d="M 439 645.45 L 435 639.45 L 443 639.45 Z" fill="#E8D2C9" stroke="none"/><text x="664.54" y="834.33" fill="#E8D2C9" font-family="-apple-system, BlinkMacSystemFont, 'Segoe UI', system-ui, sans-serif" font-size="12" font-weight="400" text-anchor="middle" dominant-baseline="central">2. Read Historical Features</text><g clip-path="url(#clip-23)"><path d="M444,714.45L444,731.575C444,731.575,444,765.825,444,765.825L444,786.5125C444,786.5125,444,862.1375,444,862.1375L444,963.6375C444,963.6375,444,1125.0125,444,1125.0125L444,1200.7C444,1200.7,444,1210.7,444,1210.7L444,1210.7C444,1213.461423749154,446.23857625084605,1215.7,449,1215.7L564,1215.7C568.4182779986463,1215.7,572,1219.2817220013537,572,1223.7L572,1249.3C572,1253.7182779986463,575.5817220013537,1257.3,580,1257.3L626.0744169872775,1257.3C630.4635259336649,1257.3,633.9669502838152,1260.8363196317812,633.9259323653287,1265.2252369098373L633.8130841121496,1277.3" stroke="#C9E7E8" stroke-width="1" stroke-linecap="round" stroke-linejoin="round" fill="none"/></g><path d="M 633.81 1277.3 L 629.87 1271.26 L 637.87 1271.34 Z" fill="#C9E7E8" stroke="none"/><text x="571.79" y="1236.5" fill="#C9E7E8" font-family="-apple-system, BlinkMacSystemFont, 'Segoe UI', system-ui, sans-serif" font-size="12" font-weight="400" text-anchor="middle" dominant-baseline="central">3. Write Predicted Future Data</text><g clip-path="url(#clip-24)"><path d="M434,714.45L434,743.7C434,743.7,434,753.7,434,753.7L434,758.2C434,758.4761423749154,433.7761423749154,758.7,433.5,758.7L433.5,758.7C433.2238576250846,758.7,433,758.9238576250847,433,759.2L433,791.5125C433,791.5125,433,857.1375,433,857.1375L433,963.6375C433,963.6375,433,1125.0125,433,1125.0125L433,1179.9C433,1179.9,433,1231.5,433,1231.5L433,1249.3C433,1253.7182779986463,429.4182779986464,1257.3,425,1257.3L404,1257.3C399.5817220013536,1257.3,396,1260.8817220013536,396,1265.3L396,1277.3" stroke="#DAC9E8" stroke-width="1" stroke-linecap="round" stroke-linejoin="round" fill="none"/></g><path d="M 396 1277.3 L 392 1271.3 L 400 1271.3 Z" fill="#DAC9E8" stroke="none"/><text x="432.36" y="1236.5" fill="#DAC9E8" font-family="-apple-system, BlinkMacSystemFont, 'Segoe UI', system-ui, sans-serif" font-size="12" font-weight="400" text-anchor="middle" dominant-baseline="central">Save Weights</text><g clip-path="url(#clip-25)"><path d="M635.6650998824912,1344.3L638.4496146568714,1387.3840376908638C638.7476659714412,1391.9957043944803,642.9124412631053,1395.8999999999999,647.5337294353967,1395.8999999999999L730,1395.8999999999999C734.4182779986463,1395.8999999999999,738,1399.4817220013535,738,1403.8999999999999L738,1418.6083333333331C738,1418.6083333333331,738,1464.025,738,1464.025L738,1520.5666666666666" stroke="#D7E8C9" stroke-width="1" stroke-linecap="round" stroke-linejoin="round" fill="none"/></g><path d="M 738 1520.57 L 734 1514.57 L 742 1514.57 Z" fill="#D7E8C9" stroke="none"/><text x="638.13" y="1375.1" fill="#D7E8C9" font-family="-apple-system, BlinkMacSystemFont, 'Segoe UI', system-ui, sans-serif" font-size="12" font-weight="400" text-anchor="middle" dominant-baseline="central">Fetch Live Predictions</text><path d="M743,1589.5666666666666L743,1606.6916666666666C743,1606.6916666666666,743,1640.9416666666666,743,1640.9416666666666L743,1714.6499999999999" stroke="#E1C9E8" stroke-width="1" stroke-linecap="round" stroke-linejoin="round" fill="none"/><path d="M 743 1714.65 L 739 1708.65 L 747 1708.65 Z" fill="#E1C9E8" stroke="none"/><g clip-path="url(#clip-26)"><path d="M630.0344827586207,1344.3L629.5172413793103,1349.3C629.2406179098803,1351.9740268711578,626.661614237417,1354.3,623.9733173320299,1354.3L496,1354.3C491.5817220013536,1354.3,488,1357.8817220013536,488,1362.3L488,1380.1C488,1380.1,488,1431.6999999999998,488,1431.6999999999998L488,1485.1499999999999" stroke="#C9E8D4" stroke-width="1" stroke-linecap="round" stroke-linejoin="round" fill="none"/></g><path d="M 488 1485.15 L 484 1479.15 L 492 1479.15 Z" fill="#C9E8D4" stroke="none"/><text x="487.23" y="1375.1" fill="#C9E8D4" font-family="-apple-system, BlinkMacSystemFont, 'Segoe UI', system-ui, sans-serif" font-size="12" font-weight="400" text-anchor="middle" dominant-baseline="central">Read Forecasts vs Actuals</text><g clip-path="url(#clip-27)"><path d="M488,1660.3999999999999L488,1689.6499999999999C488,1689.6499999999999,488,1699.6499999999999,488,1699.6499999999999L488,1699.6499999999999C488,1702.4114237491538,485.76142374915395,1704.6499999999999,483,1704.6499999999999L100,1704.6499999999999C95.58172200135365,1704.6499999999999,92,1701.0682779986462,92,1696.6499999999999L92,1627.4624999999999C92,1627.4624999999999,92,1473.0874999999999,92,1473.0874999999999L92,1444.3999999999999C92,1444.3999999999999,92,1305.8,92,1305.8L92,1305.8C92,1305.8,92,1167.2,92,1167.2L92,1025.0125C92,1025.0125,92,643.6375,92,643.6375L92,460.95000000000005C92,456.53172200135367,95.58172200135365,452.95000000000005,100,452.95000000000005L205,452.95000000000005C207.76142374915398,452.95000000000005,210,455.1885762508461,210,457.95000000000005L210,457.95000000000005C210,457.95000000000005,210,467.95000000000005,210,467.95000000000005L210,634.95" stroke="#E8C9E3" stroke-width="1" stroke-linecap="round" stroke-linejoin="round" fill="none"/></g><path d="M 210 634.95 L 206 628.95 L 214 628.95 Z" fill="#E8C9E3" stroke="none"/><text x="91.82" y="1303" fill="#E8C9E3" font-family="-apple-system, BlinkMacSystemFont, 'Segoe UI', system-ui, sans-serif" font-size="12" font-weight="400" text-anchor="middle" dominant-baseline="central">Trigger Re-Training Workflow</text><text x="91.82" y="1318.6" fill="#E8C9E3" font-family="-apple-system, BlinkMacSystemFont, 'Segoe UI', system-ui, sans-serif" font-size="12" font-weight="400" text-anchor="middle" dominant-baseline="central">(Performance Feedback)</text></svg>